<svg xmlns="http://www.w3.org/2000/svg" width="26.195" height="25.931" viewBox="0 0 26.195 25.931"><defs><style>.a{fill:#53b201;}</style></defs><path class="a" d="M25.637,11.851a2.124,2.124,0,0,0,.2-2.621,4.149,4.149,0,0,0-2.768-1.859c-.092-.017-.185-.023-.278-.035.12-.1.235-.2.343-.3a3.018,3.018,0,0,0,1.112-2.344,3.11,3.11,0,0,0-1.147-2.1l-.021-.015c-1.828-1.242-3.881.261-3.967.326l-.078.075c-.032.039-.063.085-.094.125A3.64,3.64,0,0,0,17.286.67,2.944,2.944,0,0,0,14.16.305a2.84,2.84,0,0,0-.536.367,2.415,2.415,0,0,0-1.478.01,1.793,1.793,0,0,0-1.207,1.569,2.029,2.029,0,0,0,1.008,1.938,5.783,5.783,0,0,1,2.071,2.24,2.9,2.9,0,0,0-1.193.152C10.57,7.391,1.65,20.46.067,24.7a.912.912,0,0,0,.181.978.863.863,0,0,0,.617.249,1.035,1.035,0,0,0,.361-.067C5.5,24.27,18.623,15.394,19.419,13.175a2.9,2.9,0,0,0,.164-.948,5.791,5.791,0,0,1,2.2,1.637,2.613,2.613,0,0,0,2.064,1.086h.025a1.941,1.941,0,0,0,1.6-.826,2.027,2.027,0,0,0,.06-2.144c.038-.043.077-.086.11-.129Zm-.515-2.1a1.213,1.213,0,0,1-.133,1.486c-.019-.022-.038-.042-.057-.064-.032-.037-.065-.073-.1-.11q-.126-.141-.254-.27l-.079-.079a6.114,6.114,0,0,0-4.41-1.789,8.122,8.122,0,0,0-1.459.137L18.783,9l.211-.092c.077-.032.154-.064.233-.095l.2-.077q.185-.069.376-.134c.079-.027.159-.053.239-.078s.157-.047.235-.069.175-.047.264-.069.174-.042.261-.061q.184-.039.369-.069c.067-.011.133-.02.2-.028a4.943,4.943,0,0,1,1.538.019,3.278,3.278,0,0,1,2.212,1.506ZM19.686,3.585c.258-.176,1.691-1.079,2.883-.283a2.222,2.222,0,0,1,.793,1.432,2.188,2.188,0,0,1-.836,1.654,8.429,8.429,0,0,1-1.235.95c-.059.008-.118.02-.176.029-.124.019-.248.037-.371.061-.085.017-.169.037-.253.056s-.194.044-.29.069-.177.048-.265.074-.176.052-.263.08-.179.058-.268.088-.157.056-.235.085-.183.067-.272.1l-.178.073c-.386.159-.745.327-1.067.491l-.014.007a14.477,14.477,0,0,0,.8-1.747c.015-.04.032-.08.046-.12.042-.115.08-.232.119-.35.021-.064.043-.128.063-.192.034-.112.064-.224.094-.337.019-.072.039-.143.056-.216.027-.111.05-.223.072-.336.015-.075.029-.149.041-.224.019-.111.034-.223.047-.334,0-.039.013-.078.017-.117a9.226,9.226,0,0,1,.691-1Zm-5.107-2.5a2.068,2.068,0,0,1,2.157.278.463.463,0,0,0,.048.036,2.754,2.754,0,0,1,1.29,1.884,4.145,4.145,0,0,1,.048,1.076l0,.04a7.869,7.869,0,0,1-.51,2.089,6.412,6.412,0,0,0-.074-1.305c0-.014-.005-.027-.007-.04-.016-.1-.035-.191-.056-.287-.013-.059-.028-.117-.043-.175s-.025-.1-.039-.144q-.034-.119-.074-.237c-.007-.021-.015-.043-.023-.064a5.268,5.268,0,0,0-1.074-1.8l-.043-.047c-.073-.08-.148-.158-.228-.235-.039-.038-.08-.075-.12-.112-.062-.057-.122-.114-.188-.17-.12-.1-.244-.2-.377-.3l-.005,0c-.035-.031-.114-.1-.225-.179l0,0a4.991,4.991,0,0,0-.437-.291l-.016-.01Zm-2.19,2.33a1.139,1.139,0,0,1-.566-1.088.922.922,0,0,1,.619-.812,1.3,1.3,0,0,1,.439-.073,2.012,2.012,0,0,1,.692.139h0l.017.007c.076.029.151.06.223.094l.1.052c.058.03.115.06.168.091l.062.036a4.551,4.551,0,0,1,.511.359l.03.025c.01.009.021.018.032.026a5.728,5.728,0,0,1,.537.452c.047.045.086.091.13.137.113.115.223.232.322.355.043.054.081.108.121.162.091.123.176.248.253.377q.045.076.087.153a4.4,4.4,0,0,1,.224.475c.01.025.022.051.032.076a5.425,5.425,0,0,1,.207,2.831,8.864,8.864,0,0,1-.558,1.9c-.075-.27-.154-.525-.235-.772-.013-.041-.028-.081-.041-.122q-.113-.338-.233-.648c-.014-.035-.027-.071-.04-.106a7.773,7.773,0,0,0-3.137-4.132Zm6.195,9.456c-.239.665-1.907,2.116-4.157,3.8a.439.439,0,0,0-.118-.038,3.149,3.149,0,0,1-2.127-1.112.444.444,0,1,0-.726.512,3.752,3.752,0,0,0,2.025,1.333c-1.411,1.023-2.984,2.1-4.548,3.118a.436.436,0,0,0-.239-.114,1.97,1.97,0,0,1-1.329-.688.444.444,0,0,0-.725.512,2.61,2.61,0,0,0,1.324.914A48.276,48.276,0,0,1,.917,25.032l-.025.009A.231.231,0,0,1,.9,25.014a26.852,26.852,0,0,1,1.864-3.7.452.452,0,0,0,.045.049,6.256,6.256,0,0,0,1.006.6.444.444,0,1,0,.383-.8,5.417,5.417,0,0,1-.864-.518.431.431,0,0,0-.139-.064c1.039-1.737,2.287-3.645,3.55-5.461A2.545,2.545,0,0,0,7.608,16.3a.444.444,0,0,0,.619-.106.444.444,0,0,0-.107-.619,1.969,1.969,0,0,1-.687-1.329.427.427,0,0,0-.022-.07c.983-1.381,1.951-2.673,2.815-3.752a3.754,3.754,0,0,0,1.335,2.029.444.444,0,1,0,.512-.725A3.152,3.152,0,0,1,10.96,9.6a.43.43,0,0,0-.017-.053,8.759,8.759,0,0,1,2.184-2.127,1.99,1.99,0,0,1,.679-.117,2.524,2.524,0,0,1,.7.105,14.147,14.147,0,0,1,.536,1.431c.011.033.021.066.031.1.067.216.131.438.192.665.014.051.028.1.042.151.07.269.137.545.2.829a37.465,37.465,0,0,1,.039.105.159.159,0,0,0,.007.015.355.355,0,0,0,.027.037l.007.009a.476.476,0,0,0,.03.041l.007.008h0l0,0a.427.427,0,0,0,.042.033l.009.008c.012.009.022.019.034.027l.016.008c.01.006.021.01.032.015l.03.011a.432.432,0,0,0,.04.017c.255.065.5.132.746.2l.16.047c.19.055.377.111.559.168l.136.044c.189.061.375.123.553.187l.092.033c.205.074.405.149.6.226h0a2.1,2.1,0,0,1-.09,1.05Zm6.153.742a1.041,1.041,0,0,1-.878.444h-.016A1.712,1.712,0,0,1,22.5,13.34,7.6,7.6,0,0,0,19.239,11.1l-.008-.005-.053-.021c-.135-.056-.275-.111-.417-.165-.122-.047-.247-.094-.374-.14s-.26-.093-.4-.139c-.185-.063-.378-.124-.573-.184-.073-.023-.14-.047-.214-.069l.114-.042c.013,0,.027,0,.04,0a6.322,6.322,0,0,1,5.809.432c.106.074.21.159.315.244.05.04.1.075.151.118a6.555,6.555,0,0,1,.913.982l.056.075s0,0,.006.005a1.245,1.245,0,0,1,.13,1.431Zm0,0" transform="translate(0 0.001)"/><path class="a" d="M289.38,211.32a6.269,6.269,0,0,1-2.5-1.85.444.444,0,0,0-.675.577,7.146,7.146,0,0,0,2.863,2.1.444.444,0,1,0,.316-.83Zm0,0" transform="translate(-271.457 -198.606)"/></svg>