<svg xmlns="http://www.w3.org/2000/svg" xmlns:xlink="http://www.w3.org/1999/xlink" width="26.403" height="35.573" viewBox="0 0 26.403 35.573"><defs><style>.a{fill:#fff;}.b{clip-path:url(#c);}.c{filter:url(#a);}</style><filter id="a" x="-12" y="-8" width="50.403" height="59.573" filterUnits="userSpaceOnUse"><feOffset dy="4" input="SourceAlpha"/><feGaussianBlur stdDeviation="4" result="b"/><feFlood flood-opacity="0.161"/><feComposite operator="in" in2="b"/><feComposite in="SourceGraphic"/></filter><clipPath id="c"><g class="c" transform="matrix(1, 0, 0, 1, 0, 0)"><rect class="a" width="26.403" height="35.573" rx="12"/></g></clipPath></defs><g class="b"><g transform="translate(0 5.362)"><path class="a" d="M26.24,9.383a.847.847,0,0,0-.684-.348H6.495a.823.823,0,0,0-.109.007L5.6,6.781a.848.848,0,0,0-.49-.511L1.157,4.717a.847.847,0,1,0-.62,1.577L4.128,7.7,8.523,20.373a.7.7,0,0,0-.433.425l-1.271,3.53a.706.706,0,0,0,.664.945h.653a2.541,2.541,0,1,0,3.778,0h5.541a2.541,2.541,0,1,0,3.778,0h.794a.706.706,0,0,0,0-1.412H8.488l.787-2.186a.839.839,0,0,0,.326.068H22.026a.847.847,0,0,0,.807-.588l3.53-11.013A.847.847,0,0,0,26.24,9.383ZM10.025,28.1a1.13,1.13,0,1,1,1.13-1.13A1.131,1.131,0,0,1,10.025,28.1Zm9.318,0a1.13,1.13,0,1,1,1.13-1.13A1.131,1.131,0,0,1,19.343,28.1Zm4.441-15.461H19.461V10.729h4.934Zm-1.245,3.883H19.461V14.33h3.78Zm-8.679,0V14.33h3.906v2.188Zm3.906,1.694v1.835H13.86V18.213ZM8.22,14.33h3.946v2.188H8.979Zm5.64-1.694V10.729h3.906v1.906Zm-1.694-1.906v1.906H7.632l-.661-1.906Zm-2.6,7.483h2.6v1.835H10.2Zm9.894,1.836V18.213H22l-.588,1.835Z" transform="translate(0 -4.658)"/></g></g></svg>