<svg xmlns="http://www.w3.org/2000/svg" width="16" height="16.973" viewBox="0 0 16 16.973"><defs><style>.a{fill:#53b201;}</style></defs><g transform="translate(-13.8)"><path class="a" d="M26.762,10.9a3.037,3.037,0,0,0-2.4,1.184L19.7,9.484a3.044,3.044,0,0,0,.169-1,2.978,2.978,0,0,0-.173-1l4.659-2.6a3.031,3.031,0,1,0-.627-1.843,2.963,2.963,0,0,0,.173,1l-4.656,2.6a3.032,3.032,0,1,0,.007,3.683l4.659,2.6A3.033,3.033,0,1,0,26.762,10.9Zm0-9.949a2.083,2.083,0,1,1-2.083,2.083A2.085,2.085,0,0,1,26.762.955Zm-9.924,9.611a2.083,2.083,0,1,1,2.083-2.083A2.085,2.085,0,0,1,16.838,10.566Zm9.924,5.452a2.083,2.083,0,1,1,2.083-2.083A2.085,2.085,0,0,1,26.762,16.018Z"/></g></svg>