<svg xmlns="http://www.w3.org/2000/svg" width="9" height="8.635" viewBox="0 0 9 8.635"><defs><style>.a{fill:#53b201;}.b{fill:#fff;}</style></defs><g transform="translate(-55 -29.23)"><g transform="translate(55 29.23)"><path class="a" d="M7.422,7.23H1.578A1.58,1.58,0,0,0,0,8.808v3.6a1.58,1.58,0,0,0,1.578,1.578H5.3l1.782,1.782a.316.316,0,0,0,.539-.223V13.978A1.58,1.58,0,0,0,9,12.413v-3.6A1.58,1.58,0,0,0,7.422,7.23Z" transform="translate(0 -7.23)"/><path class="b" d="M78.7,95.743H74.058a.316.316,0,0,0,0,.631H78.7a.316.316,0,0,0,0-.631Z" transform="translate(-71.88 -93.508)"/><path class="b" d="M78.7,165.743H74.058a.316.316,0,1,0,0,.631H78.7a.316.316,0,1,0,0-.631Z" transform="translate(-71.88 -161.741)"/></g></g></svg>