<svg xmlns="http://www.w3.org/2000/svg" width="24.433" height="24.357" viewBox="0 0 24.433 24.357"><defs><style>.a{fill:#fff;stroke:#fff;stroke-width:0.2px;}</style></defs><g transform="translate(0.1 0.1)"><g transform="translate(0 0.01)"><path class="a" d="M4.885.76C2.19.76,0,2.523,0,4.688S2.19,8.615,4.885,8.615a6.07,6.07,0,0,0,.9-.066l1.778,1.63a.382.382,0,0,0,.26.1.377.377,0,0,0,.153-.031A.382.382,0,0,0,8.207,9.9V7.566A3.617,3.617,0,0,0,9.771,4.688C9.771,2.523,7.58.76,4.885.76Zm2.725,6.3a.382.382,0,0,0-.188.316V9.028L6.169,7.882a.382.382,0,0,0-.26-.1H5.843a5.343,5.343,0,0,1-.958.087C2.613,7.851.764,6.43.764,4.688S2.613,1.524,4.885,1.524,9.006,2.945,9.006,4.688A2.914,2.914,0,0,1,7.611,7.057Z" transform="translate(0 -0.76)"/></g><g transform="translate(14.473 0)"><path class="a" d="M232.165.6c-2.695,0-4.885,1.763-4.885,3.928a3.617,3.617,0,0,0,1.564,2.878V9.77a.382.382,0,0,0,.229.352.377.377,0,0,0,.153.031.382.382,0,0,0,.26-.1l1.778-1.63a6.07,6.07,0,0,0,.9.066c2.69-.02,4.875-1.773,4.875-3.948S234.855.6,232.165.6Zm0,7.1v-.01a5.344,5.344,0,0,1-.958-.087.377.377,0,0,0-.326.092l-1.274,1.167V7.223a.382.382,0,0,0-.168-.316,2.914,2.914,0,0,1-1.4-2.369c0-1.742,1.849-3.164,4.121-3.164s4.121,1.421,4.121,3.164S234.437,7.7,232.165,7.7Z" transform="translate(-227.28 -0.6)"/></g><g transform="translate(4.549 10.438)"><path class="a" d="M74.339,164.52a2.9,2.9,0,1,0,2.9,2.9A2.9,2.9,0,0,0,74.339,164.52Zm.005,5.038a2.134,2.134,0,0,1-.01-4.269h.01a2.14,2.14,0,0,1,2.134,2.129h-.005A2.134,2.134,0,0,1,74.344,169.558Z" transform="translate(-71.44 -164.52)"/></g><g transform="translate(3.347 16.648)"><path class="a" d="M59.692,262.04H59.6l-2.95.749-3.056-.749H53.5a.953.953,0,0,0-.942.953v5.6a.953.953,0,0,0,.953.953h6.179a.953.953,0,0,0,.953-.953v-5.6A.953.953,0,0,0,59.692,262.04Zm0,6.745H53.528a.188.188,0,0,1-.188-.188v-5.6a.188.188,0,0,1,.153-.183l3.056.759a.376.376,0,0,0,.183,0l2.98-.754a.189.189,0,0,1,.153.183l.015,5.6A.188.188,0,0,1,59.692,268.785Z" transform="translate(-52.56 -262.04)"/></g><g transform="translate(13.989 10.438)"><path class="a" d="M222.579,164.52a2.9,2.9,0,1,0,2.9,2.9A2.9,2.9,0,0,0,222.579,164.52Zm0,5.033a2.135,2.135,0,1,1,2.134-2.135A2.14,2.14,0,0,1,222.579,169.553Z" transform="translate(-219.68 -164.52)"/></g><g transform="translate(12.786 16.648)"><path class="a" d="M207.937,262.04h-.092l-2.944.749-3.057-.749h-.092a.953.953,0,0,0-.953.953v5.6a.953.953,0,0,0,.953.953h6.184a.953.953,0,0,0,.953-.953v-5.6A.953.953,0,0,0,207.937,262.04Zm0,6.745h-6.174a.188.188,0,0,1-.188-.188v-5.6a.188.188,0,0,1,.153-.183l3.057.759a.376.376,0,0,0,.183,0l2.98-.754a.189.189,0,0,1,.153.183l.025,5.6A.188.188,0,0,1,207.937,268.785Z" transform="translate(-200.8 -262.04)"/></g></g></svg>