<svg xmlns="http://www.w3.org/2000/svg" width="24.385" height="23.124" viewBox="0 0 24.385 23.124"><defs></defs><path class="a" d="M19.384,5.069A8.419,8.419,0,0,0,21.022,0h-.841c0,3.616-2.332,6.567-5.242,6.713a2.921,2.921,0,0,0-1.094-.377A2.935,2.935,0,0,0,8.62,4.915,2.94,2.94,0,0,0,3.953,8.489a2.939,2.939,0,0,0-1.18,5.147A2.946,2.946,0,0,0,.84,16.4a2.907,2.907,0,0,0,.365,1.414,2.94,2.94,0,1,0,4.233,3.922,2.933,2.933,0,0,0,4.372-1.15,2.936,2.936,0,0,0,4.341-1.6,2.937,2.937,0,0,0,3.792-4.294A2.933,2.933,0,0,0,16.4,9.253v0a2.923,2.923,0,0,0-.618-1.8,5.808,5.808,0,0,0,2.748-1.437,5.472,5.472,0,0,0,5.438,4.916h.42v-.42a5.47,5.47,0,0,0-5-5.442ZM15.52,9.633a.014.014,0,0,0,0,0c-.008.041-.022.08-.032.12-.018.072-.036.144-.061.212s-.046.108-.071.161-.047.1-.074.149-.065.108-.1.159-.059.081-.09.12-.081.1-.126.146-.075.071-.114.105-.089.083-.138.119a2.128,2.128,0,0,1-.276.176c-.026.014-.056.023-.083.036a2.132,2.132,0,0,1-.253.1c-.032.01-.066.017-.1.026a2.09,2.09,0,0,1-.318.064l-.032-.016A2.924,2.924,0,0,0,13,11.047c-.031-.009-.062-.016-.093-.024-.086-.021-.173-.039-.262-.053l-.1-.015a2.948,2.948,0,0,0-.348-.024h-.006a2.113,2.113,0,0,1-.486-.513l-.027-.042a2.063,2.063,0,0,1-.31-.853l-.007-.049a2.07,2.07,0,0,1-.013-.224,2.1,2.1,0,1,1,4.2,0,2.071,2.071,0,0,1-.036.384Zm-1.493,5.253a2.076,2.076,0,0,1-.127.2l-.043.061a1.963,1.963,0,0,1-.131.153c-.024.025-.046.051-.071.075-.043.041-.088.079-.134.118s-.062.052-.095.076-.093.062-.141.092-.073.047-.111.067l-.035.016-.02-.013a2.929,2.929,0,0,0-.786-.424l-.055-.02a2.935,2.935,0,0,0-.411-.1l-.08-.012a2.967,2.967,0,0,0-.436-.036,2.93,2.93,0,0,0-.459.036c0-.014,0-.028,0-.041a2.8,2.8,0,0,0,.035-.415,3.039,3.039,0,0,0-.021-.339c0-.038-.012-.075-.017-.113-.011-.074-.025-.146-.042-.218-.01-.042-.021-.084-.032-.126-.02-.071-.043-.14-.068-.209-.013-.035-.025-.071-.039-.106a2.923,2.923,0,0,0-.142-.3v0c.022-.016.04-.036.062-.053a2.917,2.917,0,0,0,.261-.225c.02-.02.039-.041.058-.062a2.937,2.937,0,0,0,.236-.278l.037-.052a2.882,2.882,0,0,0,.206-.336l.018-.034a2.912,2.912,0,0,0,.167-.4.021.021,0,0,1,0,0,1.941,1.941,0,0,1,.952-.047c.037.007.073.016.109.024a2.039,2.039,0,0,1,.264.082c.032.012.065.023.1.036a2.092,2.092,0,0,1,.326.177l0,0a2.178,2.178,0,0,1,.472.452c.022.027.046.051.066.08a2.162,2.162,0,0,1,.18.313c.009.019.021.036.03.055a2.1,2.1,0,0,1,.124.382c0,.009.006.018.008.027a2.086,2.086,0,0,1,.044.412L14.283,14a2.1,2.1,0,0,1-.239.853c0,.011-.011.023-.017.034Zm-5.856,1.7A2.846,2.846,0,0,0,7.9,16.5l-.074-.019c-.086-.02-.173-.036-.261-.049l-.079-.012a3.021,3.021,0,0,0-.338-.021,2.716,2.716,0,0,0-.376.027l-.044-.032a2.785,2.785,0,0,0-.015-.285c-.006-.063-.017-.126-.028-.188-.005-.029-.008-.059-.014-.088-.015-.077-.035-.153-.056-.228,0-.013-.006-.027-.011-.041-.023-.08-.052-.158-.081-.235l-.01-.027c-.031-.077-.066-.152-.1-.225L6.4,15.047c-.036-.071-.077-.14-.119-.207-.008-.012-.014-.025-.022-.037-.041-.064-.086-.125-.132-.185l-.033-.045c-.045-.057-.093-.112-.143-.166-.011-.012-.02-.024-.031-.036a2.087,2.087,0,0,1,.124-.442,2.921,2.921,0,0,0,.334-.218l.029-.021a2.955,2.955,0,0,0,.561-.561l.022-.029a2.985,2.985,0,0,0,.215-.33l.03-.013a2.1,2.1,0,0,1,.335-.1l.058-.01a2.067,2.067,0,0,1,.364-.035,2.1,2.1,0,0,1,.391.039l.049.008a2.086,2.086,0,0,1,.348.108l.056.024a2.135,2.135,0,0,1,.314.171L9.192,13a2.077,2.077,0,0,1,.25.207c.014.013.028.025.042.039a2.121,2.121,0,0,1,.2.243c.034.047.064.1.094.144a2.044,2.044,0,0,1,.1.194c.022.045.042.09.06.137a2.054,2.054,0,0,1,.077.248c.01.039.022.078.03.118a2.037,2.037,0,0,1,.04.391,1.962,1.962,0,0,1-.04.379c-.011.057-.032.114-.049.171a2.142,2.142,0,0,1-.074.235,2.909,2.909,0,0,0-1.14,1.15,2.214,2.214,0,0,1-.258.094,2.972,2.972,0,0,0-.313-.143l-.046-.017Zm-.6-5.232a2.915,2.915,0,0,0-.028-.385c0-.028-.008-.055-.012-.082a2.916,2.916,0,0,0-.078-.354l0-.018a2.9,2.9,0,0,0-.14-.37L7.28,10.09a2.947,2.947,0,0,0-.169-.307c-.006-.01-.011-.022-.017-.032A2.209,2.209,0,0,1,7.3,9.5c.023-.008.045-.019.068-.028.049-.019.1-.039.145-.061s.077-.036.115-.055.095-.049.141-.076.073-.043.109-.066.087-.057.129-.087.073-.054.109-.081.075-.06.111-.091c.018-.016.039-.03.057-.047a2.077,2.077,0,0,1,.817-.05,2.051,2.051,0,0,1,.259.049l.1.028a2.073,2.073,0,0,1,.274.107l.049.023a2.118,2.118,0,0,1,.6.455l.026.029a1.977,1.977,0,0,1,.146.182c.006.039.016.077.024.115.016.081.036.16.059.238s.038.129.062.193.04.1.061.146.043.1.066.143.051.1.079.149c.006.011.011.023.018.034a1.856,1.856,0,0,1,.011.188,2.112,2.112,0,0,1-.044.415l-.021.086a2.1,2.1,0,0,1-.687,1.105l-.033.027c-.028.022-.061.038-.09.059-.064-.063-.13-.124-.2-.181s-.143-.112-.218-.163l-.005,0a2.9,2.9,0,0,0-.767-.369h0c-.081-.025-.164-.046-.248-.064l-.036-.009c-.077-.016-.155-.026-.233-.036l-.059-.009a2.764,2.764,0,0,0-.705.017c-.016,0-.033,0-.049,0,0-.014,0-.028,0-.042a3.031,3.031,0,0,0,.032-.414Zm1.51-5.615A2.1,2.1,0,0,1,13,6.342c-.015,0-.029.008-.045.01a2.89,2.89,0,0,0-.383.09l-.024.009a2.949,2.949,0,0,0-.341.137l-.081.039a3.031,3.031,0,0,0-.33.193l-.034.025a2.905,2.905,0,0,0-.271.218l-.065.059a3.029,3.029,0,0,0-.258.277c-.012.014-.022.03-.033.044a2.954,2.954,0,0,0-.192.279c-.015.024-.03.047-.044.072a2.962,2.962,0,0,0-.168.342c-.008.021-.015.042-.024.063a2.962,2.962,0,0,0-.1.323c0,.017-.012.033-.016.051a2.925,2.925,0,0,0-.717-.391L9.8,8.159a2.885,2.885,0,0,0-.366-.1c-.024-.005-.047-.011-.071-.015s-.051-.013-.078-.017a2.1,2.1,0,0,1-.206-.308c0-.01,0-.02.008-.03A2.934,2.934,0,0,0,9.2,7.257c0-.024.007-.049.011-.073a2.817,2.817,0,0,0,.04-.457A2.935,2.935,0,0,0,9.21,6.27c0-.025-.007-.049-.012-.073a2.862,2.862,0,0,0-.114-.43c0-.01,0-.02-.007-.03ZM6.306,4.625A2.1,2.1,0,0,1,8.236,5.9a2.155,2.155,0,0,1,.116.361c0,.014.01.027.013.042a2.1,2.1,0,0,1,0,.853c0,.015-.01.027-.013.042a2.08,2.08,0,0,1-.116.362,2.115,2.115,0,0,1-.722.885l-.067.045a2.09,2.09,0,0,1-.305.166l-.057.022a2.09,2.09,0,0,1-.779.153,1.811,1.811,0,0,1-.186-.01L6.088,8.8c-.052-.03-.105-.058-.16-.085l-.086-.042c-.056-.025-.111-.048-.169-.07L5.59,8.575c-.062-.021-.123-.041-.186-.058L5.335,8.5c-.069-.017-.139-.032-.211-.045l-.019,0a2.1,2.1,0,0,1,1.2-3.826ZM2.522,11.352A2.076,2.076,0,0,1,4.986,9.286c.034.006.068.011.1.019a2.1,2.1,0,0,1,.311.1l.085.036a2.105,2.105,0,0,1,.307.167l.012.008a2.129,2.129,0,0,1,.513.5c.032.043.061.087.089.132a2.072,2.072,0,0,1,.114.211c.02.042.04.083.057.126a2.11,2.11,0,0,1,.081.262c.009.037.021.073.029.111a2.122,2.122,0,0,1,.04.4,2.1,2.1,0,0,1-.038.38c0,.022-.006.044-.011.065a2.053,2.053,0,0,1-.095.3c-.016.042-.032.083-.051.124-.026.056-.057.108-.087.161s-.063.116-.1.17-.076.092-.114.138a2.1,2.1,0,0,1-.263.263c-.046.038-.089.079-.138.113a1.95,1.95,0,0,1-.172.1,2.07,2.07,0,0,1-1.032.282,2.1,2.1,0,0,1-2.1-2.1Zm-.578,6.061A2.074,2.074,0,0,1,1.682,16.4a2.09,2.09,0,0,1,3.749-1.29c.021.027.046.052.066.08a2.107,2.107,0,0,1,.179.311c.009.019.022.037.031.057a2.1,2.1,0,0,1,.124.38c0,.01.007.019.009.028a2.075,2.075,0,0,1,.046.434,1.919,1.919,0,0,1-.025.3,2.971,2.971,0,0,0-.59.391c-.035.029-.073.055-.106.087-.057.052-.108.11-.161.167s-.093.1-.135.148-.081.109-.12.165-.067.085-.1.131c-.009-.007-.02-.011-.029-.018a2.989,2.989,0,0,0-.321-.195c-.033-.017-.066-.032-.1-.048a2.913,2.913,0,0,0-.3-.124c-.024-.008-.047-.019-.071-.026a2.953,2.953,0,0,0-.378-.09l-.1-.015a2.974,2.974,0,0,0-.409-.032,2.944,2.944,0,0,0-.461.04c-.025,0-.05.007-.074.012a2.909,2.909,0,0,0-.432.116c-.01,0-.021,0-.031.008Zm1,4.87a2.1,2.1,0,0,1-.889-4c.054-.025.109-.048.165-.068s.116-.039.176-.055.135-.036.2-.047c.04-.007.083-.008.124-.013a2.144,2.144,0,0,1,.837.08l.076.024a2.11,2.11,0,0,1,.23.1c.043.022.085.045.127.069.058.033.116.066.171.105a2.047,2.047,0,0,1,.18.148c.032.029.068.054.1.086s.075.091.113.137a2.172,2.172,0,0,1,.153.2c.031.048.055.1.082.152a2.062,2.062,0,0,1,.1.2,2.156,2.156,0,0,1,.066.21c.016.057.038.113.05.172a2.113,2.113,0,0,1,.041.406,2.965,2.965,0,0,1-.164.811l0,.01a2.1,2.1,0,0,1-1.935,1.282Zm4.2-.841a2.073,2.073,0,0,1-1.362-.5c0-.008,0-.016.005-.025a2.974,2.974,0,0,0,.061-.305c0-.024.008-.048.011-.072a3.018,3.018,0,0,0,.023-.355,2.927,2.927,0,0,0-.036-.436c0-.027-.008-.053-.012-.08a2.88,2.88,0,0,0-.1-.41c-.006-.019-.014-.037-.021-.056a2.941,2.941,0,0,0-.423-.785L5.282,18.4c.024-.047.044-.1.071-.142.013-.022.026-.045.04-.066a2.086,2.086,0,0,1,.249-.312l.021-.02a2.105,2.105,0,0,1,.323-.265h0a2.107,2.107,0,0,1,.394-.2l.031-.012a2.062,2.062,0,0,1,.356-.1c.054-.01.1-.017.152-.023a1.972,1.972,0,0,1,.225-.017,2.1,2.1,0,0,1,.369.038c.038.007.076.015.113.024a2.093,2.093,0,0,1,.262.081c.03.012.062.02.092.033a2.114,2.114,0,0,1,.628.423,2.083,2.083,0,0,1,.2.233c.023.03.051.056.072.087a2.114,2.114,0,0,1,.122.221,2.073,2.073,0,0,1,.244.961,2.109,2.109,0,0,1-.038.372c0,.026-.008.051-.013.076a2.1,2.1,0,0,1-2.052,1.654Zm4.2-1.261a2.086,2.086,0,0,1-1.289-.444c0-.008,0-.017,0-.025a2.916,2.916,0,0,0,.026-.372c0-.1-.005-.193-.015-.288,0-.025-.007-.049-.01-.075-.008-.07-.018-.14-.032-.209-.005-.025-.011-.05-.017-.075-.015-.068-.032-.135-.052-.2l-.022-.068c-.022-.067-.046-.132-.072-.2-.009-.022-.018-.044-.028-.066-.027-.063-.057-.124-.089-.185-.012-.023-.025-.047-.038-.069-.031-.055-.064-.109-.1-.162-.018-.027-.035-.054-.053-.081-.031-.044-.064-.088-.1-.131s-.05-.064-.076-.1L9.362,17.4c.018-.052.043-.1.064-.151l.048-.1a2.111,2.111,0,0,1,.958-.959l.11-.054c.031-.013.06-.027.092-.038a1.918,1.918,0,0,1,.2-.059c.035-.009.069-.018.1-.025.061-.012.123-.02.185-.026.041,0,.081-.008.123-.01.059,0,.117,0,.176,0a2.181,2.181,0,0,1,.483.076c.06.017.121.034.18.056s.11.044.163.069.121.063.18.1c.04.024.082.045.12.072a2.118,2.118,0,0,1,.238.2,2.191,2.191,0,0,1,.215.24c.023.029.049.055.07.085a2.1,2.1,0,0,1,.141.245c.022.043.05.082.069.127a2,2,0,0,1,.08.247c.015.052.037.1.048.155a2.23,2.23,0,0,1,.043.428,2.1,2.1,0,0,1-2.1,2.1Zm4.2-1.682a2.093,2.093,0,0,1-1.261-.424s0,0,0-.006a2.944,2.944,0,0,0-.033-.409c0-.024-.007-.049-.011-.073a2.931,2.931,0,0,0-.267-.819l-.006-.012a2.983,2.983,0,0,0-.231-.382v0a2.913,2.913,0,0,0,.545-.444c.028-.029.055-.059.082-.089.063-.07.122-.143.178-.219.025-.033.051-.065.074-.1a2.92,2.92,0,0,0,.175-.3c.031-.06.057-.122.084-.184s.041-.1.059-.146c.028-.076.055-.151.077-.229,0-.012.005-.025.009-.037.022-.083.044-.167.06-.252a2.324,2.324,0,0,1,.468-.081,2.076,2.076,0,0,1,.407.041c.058.011.113.033.169.049a2.132,2.132,0,0,1,.212.066,2.087,2.087,0,0,1,.194.1c.052.028.107.052.156.085a2.2,2.2,0,0,1,.193.149A2.093,2.093,0,0,1,15.556,18.5ZM18.5,12.193a2.111,2.111,0,0,1-1.152,1.872c-.008-.006-.016-.01-.023-.015a2.929,2.929,0,0,0-.786-.424l-.055-.02a2.988,2.988,0,0,0-.411-.1l-.08-.012a2.98,2.98,0,0,0-.436-.036l-.1.008a2.832,2.832,0,0,0-.35.031c0-.009,0-.018-.005-.027a2.967,2.967,0,0,0-.065-.326c-.005-.019-.009-.038-.015-.057a2.917,2.917,0,0,0-.308-.716l-.022-.036a2.974,2.974,0,0,0-.227-.322c.012,0,.022-.01.034-.015.09-.034.177-.073.263-.115l.039-.02a3.086,3.086,0,0,0,.269-.157l.005,0a2.937,2.937,0,0,0,1.2-1.606,2.106,2.106,0,0,1,2.225,2.1Zm.862-6.286a4.633,4.633,0,0,1,4.162,4.162A4.633,4.633,0,0,1,19.361,5.907Zm0,0" transform="translate(0)"/></svg>