<svg xmlns="http://www.w3.org/2000/svg" width="26.58" height="26.581" viewBox="0 0 26.58 26.581"><defs></defs><rect class="a" width="0.857" height="0.857" transform="translate(22.293 15.434)"/><rect class="a" width="0.857" height="0.857" transform="translate(22.293 18.863)"/><rect class="a" width="0.857" height="0.857" transform="translate(22.293 22.293)"/><path class="a" d="M26.723,13H24.8a5.97,5.97,0,0,0-1.376-2.7,3.76,3.76,0,0,0-1.065-.836A3,3,0,0,0,23.655,7V6.573H21.511a3,3,0,0,0-2.572,1.463V7a1.717,1.717,0,0,1,1.715-1.715V4.43A2.575,2.575,0,0,0,18.082,7V9.381a3.322,3.322,0,0,0-3.606.9c-.11.123-.213.25-.313.38l.037-.179a4.4,4.4,0,0,0,.09-.906,4.272,4.272,0,0,0-1.3-3.072l1.5-2.212a1.372,1.372,0,0,0,.088-.151,1.329,1.329,0,0,0-.594-1.781L13.878,2.3a1.328,1.328,0,0,0-1.784.6,1.269,1.269,0,0,0-.06.141l-.874,2.4c-.059-.017-.119-.032-.179-.046l.3-3.031a1.146,1.146,0,0,0,.007-.127A1.247,1.247,0,0,0,10.044,1H9.963A1.247,1.247,0,0,0,8.717,2.245a1.153,1.153,0,0,0,.006.124l.3,3.034c-.06.014-.12.03-.179.046l-.874-2.4A1.369,1.369,0,0,0,7.91,2.9,1.328,1.328,0,0,0,6.129,2.3l-.107.054a1.33,1.33,0,0,0-.593,1.783,1.438,1.438,0,0,0,.088.15L7.021,6.5A4.323,4.323,0,0,0,5.806,10.48L6.332,13H5.716a.858.858,0,0,0-.857.857V13.9a3.012,3.012,0,0,0-.429-.034H2.286v.429a3,3,0,0,0,1.3,2.466,3.743,3.743,0,0,0-1.065.836A6,6,0,0,0,7,27.581c.08,0,.16,0,.241,0a5.978,5.978,0,0,0,3.945-1.71H23.722a2.146,2.146,0,0,0,2.144-2.144V15.576h.857a.858.858,0,0,0,.857-.857v-.857A.858.858,0,0,0,26.723,13ZM21.511,7.431h1.243a2.147,2.147,0,0,1-2.1,1.715H19.411A2.147,2.147,0,0,1,21.511,7.431Zm-6.4,3.421a2.5,2.5,0,0,1,2.81-.623c.051.022.106.039.159.057V11.2a3.155,3.155,0,0,1-.983-.645l-.606.607a3.322,3.322,0,0,0,2.018.983,3.322,3.322,0,0,0,2.018-.983l-.606-.607a3.17,3.17,0,0,1-.983.645V10h1.715a2.977,2.977,0,0,0,.427-.034,2.627,2.627,0,0,1,1.7.9A5.116,5.116,0,0,1,23.919,13H13.96A5.118,5.118,0,0,1,15.112,10.852ZM12.839,3.338a.45.45,0,0,1,.025-.056.47.47,0,0,1,.631-.21l.107.054a.47.47,0,0,1,.211.629.492.492,0,0,1-.032.055L12.313,5.968q-.173-.111-.356-.206ZM9.574,2.245a.388.388,0,0,1,.388-.388h.081a.4.4,0,0,1,.386.427l-.3,3.01c-.042,0-.083-.006-.125-.006s-.084.005-.126.006ZM6.226,3.811a.456.456,0,0,1-.032-.055.47.47,0,0,1,.21-.631l.107-.054a.468.468,0,0,1,.359-.026.474.474,0,0,1,.276.244.412.412,0,0,1,.021.048l.882,2.425q-.183.095-.356.206ZM10,6.145a3.458,3.458,0,0,1,3.358,4.16L12.8,13H8.023a1.7,1.7,0,0,1,1.122-.429v-.857a2.568,2.568,0,0,0-2.005.965l-.5-2.378a3.569,3.569,0,0,1-.072-.731A3.434,3.434,0,0,1,10,6.145ZM5.716,13.861h.9a2.571,2.571,0,0,0-.039.429v.476a3.007,3.007,0,0,0-.857-.611Zm-1.286.857a2.147,2.147,0,0,1,2.1,1.715H5.287a2.147,2.147,0,0,1-2.1-1.715Zm2.777,12a5.144,5.144,0,0,1-4.051-8.557,2.623,2.623,0,0,1,1.7-.9,2.977,2.977,0,0,0,.427.034H6.573v1.2a3.155,3.155,0,0,1-.983-.645l-.606.607A3.322,3.322,0,0,0,7,19.435a3.322,3.322,0,0,0,2.018-.983l-.606-.607a3.17,3.17,0,0,1-.983.645v-.807a2.5,2.5,0,0,0,.588-.165,2.5,2.5,0,0,1,2.809.623,5.144,5.144,0,0,1-3.621,8.579ZM13,21.578a5.972,5.972,0,0,0-.571-2.572H25.008v2.572Zm10.725,3.43H11.916a5.959,5.959,0,0,0,1.026-2.572H25.008v1.286A1.288,1.288,0,0,1,23.722,25.008Zm3-10.289H25.008v3.43H11.921a6.014,6.014,0,0,0-.456-.582,3.33,3.33,0,0,0-3.784-.838,1.671,1.671,0,0,1-.251.077v-1.23h16.72v-.857H7.431V14.29a1.689,1.689,0,0,1,.061-.429H26.723Z" transform="translate(-1 -1)"/><path class="a" d="M5.857,49H5a4.292,4.292,0,0,0,4.287,4.287V52.43A3.434,3.434,0,0,1,5.857,49Z" transform="translate(-3.285 -28.422)"/><rect class="a" width="0.857" height="0.857" transform="translate(10.289 6.859)"/><rect class="a" width="0.857" height="0.857" transform="translate(10.289 8.574)"/><rect class="a" width="0.857" height="0.857" transform="translate(10.289 10.289)"/></svg>