<svg xmlns="http://www.w3.org/2000/svg" width="187.414" height="124.746" viewBox="0 0 187.414 124.746">
  <g id="Group_204" data-name="Group 204" transform="translate(-87.07 -355.836)">
    <g id="Group_203" data-name="Group 203" transform="translate(172.496 427.653)">
      <path id="Path_101" data-name="Path 101" d="M620.8,644.5a2.464,2.464,0,0,0-.754-1.768c-3.466-2.816-6.906-5.663-10.378-8.519-.8.9-.489,1.768-.495,2.547-.036,4.672.194,9.358-.1,14.013-.2,3.262,1.921,5.06,3.918,6.484,1.235.881,2.452-1.636,3.819-2.411.071-.04.121-.12.193-.157C621.408,652.46,621.467,648.62,620.8,644.5Z" transform="translate(-554.485 -617.525)" fill="#634013"/>
      <path id="Path_102" data-name="Path 102" d="M554.941,646.6a41.085,41.085,0,0,1-4.261,3.837c-4.1,2.8-5.494,6.42-5.233,11.439.174,3.349,1.13,5.177,4.037,6.473,2.6,1.159,6.161-.528,6.23-3.4.145-6.067.044-12.139.044-18.209Z" transform="translate(-522.786 -623.69)" fill="#634013"/>
      <path id="Path_103" data-name="Path 103" d="M681.922,605.019c1.428,1.567,2.952,2.673,4.754,2.332,2.7.164,2.851.163,2.841-2.119-.006-1.394.463-2.872.316-4.266H678.119Q680.044,602.97,681.922,605.019Z" transform="translate(-588.874 -600.966)" fill="#634013"/>
      <line id="Line_2" data-name="Line 2" x2="11.715" transform="translate(89.245 0)" fill="#272425"/>
      <path id="Path_104" data-name="Path 104" d="M514.109,604.652c-3.388,2.119-6.518,4.647-9.809,6.927a1.793,1.793,0,0,0-.837,2.267c.275,1.123.9,1.19,1.8,1.193,2.5.008,5,.074,7.508.108.737.01,1.473.121,1.993-.68,2.882-4.434,5.785-8.86,8.828-13.5h-6.354A7.5,7.5,0,0,1,514.109,604.652Z" transform="translate(-501.839 -600.966)" fill="#634013"/>
      <line id="Line_3" data-name="Line 3" x2="6.353" transform="translate(15.397 0)" fill="#272425"/>
      <path id="Path_105" data-name="Path 105" d="M679.619,619.463c-5.73.018-11.459.008-17.651.008,4.424,4.969,8.61,9.688,12.82,14.385.834.931,1.09.022,1.377-.542a49.688,49.688,0,0,0,4.441-12.465C680.814,619.847,680.681,619.46,679.619,619.463Z" transform="translate(-580.831 -610.178)" fill="#634013"/>
      <path id="Path_106" data-name="Path 106" d="M583.766,662.677l-15.138,16.832c4.609,1.752,8.993,2.222,13.386,2.679,1.237.129,1.8-.125,1.782-1.549C583.725,674.889,583.766,669.137,583.766,662.677Z" transform="translate(-534.346 -631.699)" fill="#634013"/>
      <path id="Path_107" data-name="Path 107" d="M611.636,610.11a3.711,3.711,0,0,0,2.109-.679c6.3-2.921,7.208-3.35,7.131-8.465h-9.24Z" transform="translate(-555.764 -600.966)" fill="#634013"/>
      <line id="Line_4" data-name="Line 4" x2="9.24" transform="translate(55.871 0)" fill="#2b2829"/>
      <path id="Path_108" data-name="Path 108" d="M578.989,603.109a1.354,1.354,0,0,0-.477.826,85.532,85.532,0,0,0,.132,9.98c.263,2.308,2.548,2.7,4.181,1q2.335-2.433,4.7-4.835a3.126,3.126,0,0,0,1.146-2.367c-.03-2.213-.035-4.43-.033-6.749h-7.314Q580.149,602.043,578.989,603.109Z" transform="translate(-539.227 -600.966)" fill="#634013"/>
      <line id="Line_5" data-name="Line 5" x2="7.314" transform="translate(42.099 0)" fill="#272425"/>
      <path id="Path_109" data-name="Path 109" d="M646.2,632.481c1.242.975,1.966-.325,2.83-.77,1.253-.645,2.379-1.534,3.625-2.2,1.154-.613,1.244-1.307,1.046-2.6-.919-6.012-5.206-9.851-8.772-14.171l-.9.027c-.026,5.41.051,10.825-.131,16.23C643.837,630.914,645.064,631.586,646.2,632.481Z" transform="translate(-571.832 -606.83)" fill="#634013"/>
      <path id="Path_110" data-name="Path 110" d="M500.684,607a1.154,1.154,0,0,1,.028.249c.018,1.337.43,1.673,1.614.783,2.8-2.107,5.666-4.127,8.474-6.224a3.459,3.459,0,0,0,.795-.838H501.087A8.562,8.562,0,0,0,500.684,607Z" transform="translate(-500.334 -600.966)" fill="#634013"/>
      <line id="Line_6" data-name="Line 6" x2="10.507" transform="translate(0.753 0)" fill="#272425"/>
      <path id="Path_111" data-name="Path 111" d="M650.673,606.859c2.248,2.084,4.243,2.059,5.623-.63.825-1.607,1.573-3.253,2.4-4.862.069-.137.13-.269.185-.4H646.3A19.034,19.034,0,0,0,650.673,606.859Z" transform="translate(-573.027 -600.966)" fill="#53b201"/>
      <line id="Line_7" data-name="Line 7" x2="8.719" transform="translate(73.272 0)" fill="#272425"/>
      <path id="Path_112" data-name="Path 112" d="M521.738,635.121c-4.619,0-9.239.011-13.859-.008-1.225,0-1.139.624-.8,1.449a54.905,54.905,0,0,0,4.292,8.459c.393.623.7,1.11,1.463.3,3.005-3.184,6.056-6.325,9.09-9.482Q521.831,635.481,521.738,635.121Z" transform="translate(-503.584 -617.972)" fill="#634013"/>
      <path id="Path_113" data-name="Path 113" d="M543.975,635.059c1.787-1.853,3.746-3.539,5.632-5.3.542-.505,1.187-.936,1.184-1.805-.006-2.21,0-4.42,0-7.35l-14.017,13.324a38.813,38.813,0,0,1,3.539,1.752C541.785,636.612,542.822,636.255,543.975,635.059Z" transform="translate(-518.481 -610.748)" fill="#634013"/>
      <path id="Path_114" data-name="Path 114" d="M547.826,602.079c-2.43,3.477-2.364,3.481.354,6.684.671.791,1.025.979,1.906.181,2.573-2.331,4.9-4.715,5.4-7.979H548.58C548.333,601.34,548.083,601.711,547.826,602.079Z" transform="translate(-523.111 -600.966)" fill="#634013"/>
      <line id="Line_8" data-name="Line 8" x2="6.906" transform="translate(25.468 0)" fill="#272425"/>
      <path id="Path_115" data-name="Path 115" d="M585.182,646.956c-2.216-1.843-4.412-3.71-6.877-5.788V656.06c2.576-2.763,4.763-5.138,6.99-7.476C585.911,647.937,585.822,647.488,585.182,646.956Z" transform="translate(-539.165 -620.987)" fill="#634013"/>
      <path id="Path_116" data-name="Path 116" d="M524.113,654.7c-3.036,2.848-3.014,2.826,0,5.891.778.792,1.355,1.1,2.214.133,1.868-2.107,3.794-4.163,5.73-6.277C527.37,651.647,527.37,651.647,524.113,654.7Z" transform="translate(-511.046 -626.57)" fill="#634013"/>
      <path id="Path_117" data-name="Path 117" d="M669.82,638.637l-.357.2,3.932,13.442a25.425,25.425,0,0,0,3.9-4.891c.568-.818.335-1.318-.295-1.91C674.59,643.212,672.21,640.919,669.82,638.637Z" transform="translate(-584.563 -619.727)" fill="#634013"/>
      <path id="Path_118" data-name="Path 118" d="M655.186,655.173c-.061.045-.083.143-.224.4l8.349,7.594c.13-2.425-.659-4.017-1.1-5.659C660.537,651.318,660.508,651.325,655.186,655.173Z" transform="translate(-577.341 -626.643)" fill="#634013"/>
      <path id="Path_119" data-name="Path 119" d="M653.291,669.671c-3-2.46-6.011-4.917-9.406-7.693.01,1.787-.6,3.285.345,4.247A78,78,0,0,0,650.81,672c1.264,1.023,1.849-.54,2.683-1.018C654.353,670.491,653.751,670.048,653.291,669.671Z" transform="translate(-571.733 -631.351)" fill="#634013"/>
      <path id="Path_120" data-name="Path 120" d="M623.836,620.228l-6.848,3.167,7.377,6.023C624.171,626.051,624.013,623.3,623.836,620.228Z" transform="translate(-558.43 -610.559)" fill="#634013"/>
      <path id="Path_121" data-name="Path 121" d="M539.032,619.913c.727-1.4-1.134-2.359-1.693-3.592-.368-.815-.859-.912-1.431-.083-1.36,1.974-2.762,3.919-4.523,6.407a18.1,18.1,0,0,1,2.823.021C536.634,623.14,538.129,621.65,539.032,619.913Z" transform="translate(-515.798 -608.284)" fill="#634013"/>
      <path id="Path_122" data-name="Path 122" d="M629.4,680.518c-5.357,3.142-5.588,4-2.21,7.283.456.443.847,1.1,1.658.734.684-.31.544-.954.547-1.514C629.4,684.955,629.4,682.89,629.4,680.518Z" transform="translate(-562.395 -640.584)" fill="#634013"/>
      <path id="Path_123" data-name="Path 123" d="M611.637,692.972c.013.013-.6.629-.921.964a16.231,16.231,0,0,0,5.85-1.036l-5.806-6.073C611.2,688.841,609.85,691.125,611.637,692.972Z" transform="translate(-555.289 -643.726)" fill="#634013"/>
      <path id="Path_124" data-name="Path 124" d="M537.3,674.683v-6.495C532.452,671.944,532.4,671.631,537.3,674.683Z" transform="translate(-516.924 -634.444)" fill="#634013"/>
      <path id="Path_125" data-name="Path 125" d="M672.106,608.359c-1.6-1.5-2.7-2.481-3.745-3.524-.857-.858-1.234-.569-1.76.4-1.5,2.771-1.533,2.785,1.638,2.954C669.288,608.243,670.336,608.281,672.106,608.359Z" transform="translate(-579.208 -602.639)" fill="#634013"/>
      <path id="Path_126" data-name="Path 126" d="M646,683.163a3.306,3.306,0,0,0-2.055-1.476c0,1.444,0,2.672,0,3.9,0,.525.078,1.127.789.83a5.543,5.543,0,0,0,2.528-1.458C647.844,684.062,646.491,683.732,646,683.163Z" transform="translate(-571.852 -641.166)" fill="#634013"/>
      <path id="Path_127" data-name="Path 127" d="M596.1,636.84c-3.393,2.162-3.383,2.42,0,4.374Z" transform="translate(-546.761 -618.832)" fill="#634013"/>
      <path id="Path_128" data-name="Path 128" d="M610.005,686.511a.922.922,0,0,0-.109-.22.364.364,0,0,0-.177-.1c-.85,1.075-.681,6.111.243,7.427.321-.335.933-.952.921-.964C609.1,690.808,610.448,688.525,610.005,686.511Z" transform="translate(-554.534 -643.41)" fill="#634013"/>
      <path id="Path_129" data-name="Path 129" d="M644.3,611.053q-.068.437-.138.875l.9-.027A1.073,1.073,0,0,0,644.3,611.053Z" transform="translate(-571.964 -605.99)" fill="#634013"/>
    </g>
    <path id="Path_130" data-name="Path 130" d="M17.546,72.859a1.083,1.083,0,0,1,1.226,1.226v86.652q0,7.446-4.177,11.622-4.222,4.222-11.668,4.222H-1.7q-1.226,0-1.226-1.271V171q0-1.271,1.226-1.271H2.927q4.676,0,6.855-2.134,2.179-2.179,2.179-6.855V74.084q0-1.226,1.18-1.226ZM62.991,90.61a12.866,12.866,0,0,0-12.8-12.8,12.788,12.788,0,0,0-12.8,12.8V97.6a12.788,12.788,0,0,0,12.8,12.8h12.8ZM50.188,71A19.608,19.608,0,0,1,69.8,90.61v67.675a17.548,17.548,0,0,1-5.4,12.848,17.625,17.625,0,0,1-12.894,5.448H41.88a1.083,1.083,0,0,1-1.226-1.226V171a1.083,1.083,0,0,1,1.226-1.226h9.625a11.628,11.628,0,0,0,11.486-11.486V117.214h-12.8A19.608,19.608,0,0,1,30.576,97.6V90.61a18.786,18.786,0,0,1,5.766-13.847A18.786,18.786,0,0,1,50.188,71Zm79.5,46.217H126.6a13.349,13.349,0,0,1-9.806-3.677q-.136-.182-.409-.5t-.454-.5q-4,4.676-12.621,4.676H83.285a1.083,1.083,0,0,1-1.226-1.226v-4.313q0-1.271,1.226-1.271h20.021q5.266,0,7.264-2.043,1.68-1.68,1.68-5.72V87.75a9.92,9.92,0,0,0-9.943-9.943q-5.947,0-8.853,2.088L91.73,81.121a1.6,1.6,0,0,1-.772.227h-.227a1.062,1.062,0,0,1-.772-.5l-2.542-3.541a1.119,1.119,0,0,1-.182-.636V76.4a1.2,1.2,0,0,1,.5-.817l1.725-1.226Q94.136,71,102.308,71A16.741,16.741,0,0,1,119.06,87.75v17.57a4.55,4.55,0,0,0,1.317,3.36,6.6,6.6,0,0,0,4.949,1.725h4.358ZM99.357,61.781a1.083,1.083,0,0,1-1.226-1.226V55.062a1.083,1.083,0,0,1,1.226-1.226h4.585a1.083,1.083,0,0,1,1.226,1.226v5.493a1.083,1.083,0,0,1-1.226,1.226Zm61.608,9.171a21.546,21.546,0,0,1,21.52,21.52v8.9q0,7.446-4.177,11.622-4.222,4.222-11.622,4.222H127.414V110.4h39.271q4.676,0,6.855-2.179,2.134-2.179,2.134-6.855v-8.9a14.021,14.021,0,0,0-4.313-10.351,14.17,14.17,0,0,0-10.4-4.313q-10.033,0-14.846,6.9l-1.271,1.771a1.053,1.053,0,0,1-.908.636,1.283,1.283,0,0,1-.772-.318l-3.541-2.452a1.151,1.151,0,0,1-.636-.953,1.628,1.628,0,0,1,.272-.817l1.271-1.771a21.956,21.956,0,0,1,11.35-8.354A28.273,28.273,0,0,1,160.965,70.952Z" transform="translate(91 303)" fill="#53b201" stroke="#53b201" stroke-width="2"/>
  </g>
</svg>
