<svg xmlns="http://www.w3.org/2000/svg" xmlns:xlink="http://www.w3.org/1999/xlink" width="11.047" height="14.885" viewBox="0 0 11.047 14.885"><defs><style>.a{fill:#fff;}.b{clip-path:url(#c);}.c{filter:url(#a);}</style><filter id="a" x="-12" y="-8" width="35.047" height="38.885" filterUnits="userSpaceOnUse"><feOffset dy="4" input="SourceAlpha"/><feGaussianBlur stdDeviation="4" result="b"/><feFlood flood-opacity="0.161"/><feComposite operator="in" in2="b"/><feComposite in="SourceGraphic"/></filter><clipPath id="c"><g class="c" transform="matrix(1, 0, 0, 1, 0, 0)"><rect class="a" width="11.047" height="14.885" rx="5.524"/></g></clipPath></defs><g class="b" transform="translate(0 0)"><g transform="translate(0 2.244)"><path class="a" d="M10.979,6.635a.355.355,0,0,0-.286-.146H2.718a.344.344,0,0,0-.046,0l-.328-.946a.355.355,0,0,0-.205-.214L.484,4.683a.355.355,0,0,0-.259.66l1.5.59,1.839,5.3a.294.294,0,0,0-.181.178l-.532,1.477a.3.3,0,0,0,.278.4H3.4a1.063,1.063,0,1,0,1.581,0H7.3a1.063,1.063,0,1,0,1.581,0h.332a.3.3,0,0,0,0-.591H3.551l.329-.915a.351.351,0,0,0,.137.028h5.2a.354.354,0,0,0,.337-.246L11.03,6.952A.354.354,0,0,0,10.979,6.635Zm-6.785,7.83a.473.473,0,1,1,.473-.473A.473.473,0,0,1,4.194,14.465Zm3.9,0a.473.473,0,1,1,.473-.473A.473.473,0,0,1,8.094,14.465ZM9.952,8H8.143V7.2h2.064ZM9.431,9.621H8.143V8.705H9.724Zm-3.631,0V8.705H7.434v.916Zm1.635.709V11.1H5.8V10.33ZM3.439,8.705H5.09v.916H3.757ZM5.8,8V7.2H7.434V8ZM5.09,7.2V8h-1.9l-.277-.8ZM4,10.33H5.09V11.1H4.269Zm4.14.768V10.33H9.2l-.246.768Z" transform="translate(0 -4.658)"/></g></g></svg>