<svg xmlns="http://www.w3.org/2000/svg" width="25" height="18.214" viewBox="0 0 25 18.214"><defs><style>.a{fill:#fff;}</style></defs><g transform="translate(34 87.047) rotate(180)"><g transform="translate(9 68.833)"><path class="a" d="M1.071,55.976H23.929a1.071,1.071,0,1,0,0-2.143H1.071a1.071,1.071,0,1,0,0,2.143Z" transform="translate(0 -53.833)"/><path class="a" d="M1.071,183.476H13.929a1.071,1.071,0,1,0,0-2.143H1.071a1.071,1.071,0,1,0,0,2.143Z" transform="translate(0 -173.297)"/><path class="a" d="M1.071,310.976H23.929a1.071,1.071,0,0,0,0-2.143H1.071a1.071,1.071,0,0,0,0,2.143Z" transform="translate(0 -292.762)"/></g></g></svg>