<svg xmlns="http://www.w3.org/2000/svg" width="22" height="20.551" viewBox="0 0 22 20.551"><defs><style>.a{fill:#fff;}</style></defs><g transform="translate(-0.001 1.082)"><path class="a" d="M19.291,1.661h-.033V1.627a2.712,2.712,0,0,0-2.709-2.709H2.71A2.712,2.712,0,0,0,0,1.627V10.1A2.712,2.712,0,0,0,2.615,12.8v3.923l1.923-1.338a2.7,2.7,0,0,0,.914.16h8.3l5.635,3.921V15.547A2.713,2.713,0,0,0,22,12.839V4.37a2.712,2.712,0,0,0-2.709-2.709ZM1.29,10.1V1.627A1.422,1.422,0,0,1,2.71.207H16.548a1.422,1.422,0,0,1,1.42,1.42V10.1a1.422,1.422,0,0,1-1.42,1.42h-8.7L3.9,14.259V11.517H2.71A1.422,1.422,0,0,1,1.29,10.1Zm19.422,2.743a1.422,1.422,0,0,1-1.42,1.42H18.1V17l-3.942-2.743H6.161L8.25,12.806h8.3A2.713,2.713,0,0,0,19.258,10.1V2.95h.033a1.422,1.422,0,0,1,1.42,1.42Zm0,0"/><path class="a" d="M186.43,175.148h1.284v1.284H186.43Zm0,0" transform="translate(-180.021 -170.172)"/><path class="a" d="M261.43,175.148h1.284v1.284H261.43Zm0,0" transform="translate(-252.443 -170.172)"/><path class="a" d="M336.43,175.98h1.284v1.284H336.43Zm0,0" transform="translate(-324.865 -170.976)"/></g></svg>