<svg xmlns="http://www.w3.org/2000/svg" width="30.121" height="30.428" viewBox="0 0 30.121 30.428"><defs></defs><path class="a" d="M20.244,7.919A3.737,3.737,0,0,0,17.973,4.4,3.012,3.012,0,0,0,15.4,1.888a2.04,2.04,0,0,0-.074-.39A2.1,2.1,0,0,0,13.587.015,2.069,2.069,0,0,0,12.15.374,2.235,2.235,0,0,0,10.916,0,2.26,2.26,0,0,0,8.685,1.919c-.04.008-.079.02-.118.029-.037-.09-.075-.178-.119-.264A2.6,2.6,0,0,0,5.907.03,1.951,1.951,0,0,0,4.473,1.187a2.112,2.112,0,0,0-1.6-.117,2.061,2.061,0,0,0-1.2,1.167,3.737,3.737,0,0,0-.011,2.672A2.527,2.527,0,0,0,.7,6.2,4.025,4.025,0,0,0,1,9.255c.055.111.116.222.182.331a2.537,2.537,0,0,0-1.02,1.324,3.511,3.511,0,0,0,.367,2.862,4.274,4.274,0,0,0,.952,1.136,2.228,2.228,0,0,0,.278,1.642A2.714,2.714,0,0,0,3.8,17.871c1.3,2.437,2.908,3.484,5.386,4.534l.028.012a2.136,2.136,0,0,0,1.139.317,2.506,2.506,0,0,0,.681-.1l.011,0,0,0a2.327,2.327,0,0,0,.517-.217,1.592,1.592,0,0,0,.792-1.951c-.749-2.2-.688-3.847.181-4.9,1.5-1.827,4.994-1.378,5.029-1.372l.406.055.041-.408a3.215,3.215,0,0,0-.62-2.191q-.065-.075-.135-.143a3.56,3.56,0,0,0,.621-.2,3.8,3.8,0,0,0,2.369-3.384ZM4.393,17.307l-.111-.217-.244,0h-.01a1.915,1.915,0,0,1-1.591-.942A1.387,1.387,0,0,1,2.3,14.917l.12-.288-.252-.184a3.471,3.471,0,0,1-.959-1.069,2.727,2.727,0,0,1-.3-2.213A1.727,1.727,0,0,1,1.9,10.094L2.369,9.9l-.3-.406A3.935,3.935,0,0,1,1.7,8.9a3.281,3.281,0,0,1-.254-2.45,1.7,1.7,0,0,1,.865-1.018l.338-.162L2.51,4.928,2.493,4.89a3.037,3.037,0,0,1-.1-2.336,1.308,1.308,0,0,1,.743-.739,1.5,1.5,0,0,1,1.329.269l.456.307.145-.53A1.3,1.3,0,0,1,6.034.81,1.866,1.866,0,0,1,7.742,2.04c.033.066.064.133.092.2-.009.005-.017.012-.026.017a2.734,2.734,0,0,0-.235.156c-.045.033-.088.069-.131.1s-.057.049-.084.074a2.782,2.782,0,0,0-.421.475l-.026.039a2.808,2.808,0,0,0-.188.323c-.014.027-.028.054-.041.082-.024.053-.046.106-.067.161s-.041.114-.059.173-.03.1-.042.147a2.635,2.635,0,0,0-.052.259c0,.032-.009.064-.013.1a2.748,2.748,0,0,0-.022.329c0,.072,0,.144.009.218A3.179,3.179,0,0,0,4.1,9.338a2.441,2.441,0,0,0,.7,3.855c0,.211,0,.417.008.619,0,.066.007.13.011.2.007.134.015.268.026.4.006.075.015.148.022.221.012.118.026.236.042.35.01.075.022.15.034.224q.027.166.058.328.021.11.045.218c.024.108.05.215.077.321.018.068.035.136.053.2.031.111.065.22.1.329.019.06.037.12.057.179.045.131.093.26.144.389.014.035.026.071.04.106q.1.244.212.484c.021.045.045.09.067.135.056.114.112.229.173.342.032.061.067.122.1.183.054.1.109.2.166.292.039.066.08.132.12.2.057.092.114.184.174.276q.066.1.134.2.092.137.188.274c.047.068.1.136.144.2.068.093.138.187.208.281.05.067.1.134.151.2.077.1.157.2.237.3.049.062.1.123.147.186l.013.017a7.735,7.735,0,0,1-3.369-3.546Zm11.423-6.594-.105-.018-.382.088-.042.872.394.021a1.477,1.477,0,0,1,1.106.481,2.11,2.11,0,0,1,.434,1.206c-1.086-.071-3.849-.06-5.294,1.693-1.057,1.282-1.164,3.186-.321,5.662a.825.825,0,0,1-.443,1.014c-.017.01-.037.017-.055.027a24.862,24.862,0,0,1-1.515-5.091c0-.01,0-.019,0-.028A15.467,15.467,0,0,1,9.355,13.4c.553-.943,2.178-.981,2.195-.981a.395.395,0,0,0-.005-.79h0a4.5,4.5,0,0,0-2.084.585,10.151,10.151,0,0,1,.515-2.09.391.391,0,0,0,.057-.09.385.385,0,0,0,.034-.156,8.576,8.576,0,0,1,.979-1.809,5.727,5.727,0,0,1,3.136.2.389.389,0,0,0,.158.033.395.395,0,0,0,.159-.757,6.156,6.156,0,0,0-2.711-.375A6.279,6.279,0,0,1,13.32,5.963a2.114,2.114,0,0,1,1.687.241.39.39,0,0,0,.2.054.395.395,0,0,0,.2-.735,3.363,3.363,0,0,0-1.842-.437,2.214,2.214,0,0,1,.338-.728.395.395,0,0,0-.628-.479,2.786,2.786,0,0,0-.542,1.51,8.553,8.553,0,0,0-3.1,3.562c-.056.115-.11.239-.164.364a2.26,2.26,0,0,1-.89-2.11.4.4,0,0,0-.78-.123,3,3,0,0,0,1.38,2.987A11.674,11.674,0,0,0,8.6,13.182a.39.39,0,0,0-.006.113,15.853,15.853,0,0,0,.136,2.837,1.979,1.979,0,0,1-.744-.706.4.4,0,0,0-.7.37,2.812,2.812,0,0,0,1.586,1.252,25.388,25.388,0,0,0,1.458,4.894,1.354,1.354,0,0,1-.706-.2h0c-.042-.027-.078-.054-.113-.081a1.049,1.049,0,0,1-.124-.112l-.006-.006-.166-.189C6.741,18.509,5.5,16.427,5.6,12.945l.008-.288-.272-.1a1.651,1.651,0,0,1-.5-2.834L5.1,9.516l-.168-.29A2.391,2.391,0,0,1,6.9,5.636l.48-.02-.112-.467a2.019,2.019,0,0,1-.058-.472,1.994,1.994,0,0,1,.034-.356c.005-.03.013-.058.02-.087a2.034,2.034,0,0,1,.079-.265c.009-.024.018-.047.028-.07a2.024,2.024,0,0,1,.15-.293L7.531,3.6a2.064,2.064,0,0,1,.476-.518c.026-.02.053-.037.079-.056a2.04,2.04,0,0,1,.2-.121c.043-.023.085-.045.13-.065a1.986,1.986,0,0,1,.67-.176l.365-.028v-.4a1.46,1.46,0,0,1,2.446-1.062l.277.25.265-.262A1.276,1.276,0,0,1,13.494.8a1.294,1.294,0,0,1,1.07.92,1.217,1.217,0,0,1,.043.49l-.041.44h.444a2.215,2.215,0,0,1,2.2,2.057l.018.259.245.086A2.949,2.949,0,0,1,19.454,7.9a3.011,3.011,0,0,1-1.886,2.672,2.742,2.742,0,0,1-1.751.138Zm0,0" transform="translate(0 13.013) rotate(-40)"/></svg>