<svg xmlns="http://www.w3.org/2000/svg" width="31.955" height="27.9" viewBox="0 0 31.955 27.9"><defs><style>.a{fill:#fff;}</style></defs><g transform="translate(0 0)"><path class="a" d="M254.7,263.75h-4.342A2.157,2.157,0,0,0,248.2,265.9v3.33a2.157,2.157,0,0,0,2.155,2.155H254.7a2.157,2.157,0,0,0,2.155-2.155V265.9A2.157,2.157,0,0,0,254.7,263.75Zm.588,5.485a.589.589,0,0,1-.588.588h-4.342a.589.589,0,0,1-.588-.588V265.9a.589.589,0,0,1,.588-.588H254.7a.589.589,0,0,1,.588.588Z" transform="translate(-231.994 -248.556)"/><path class="a" d="M31.955,40.191a.727.727,0,0,0-.1-.385L27.1,31.448a.788.788,0,0,0-.679-.4H5.53a.774.774,0,0,0-.679.4L.1,39.806a.792.792,0,0,0-.1.385,4.583,4.583,0,0,0,2.742,4.192V58.166a.786.786,0,0,0,.784.784h24.9a.786.786,0,0,0,.784-.784V44.481A.345.345,0,0,0,29.2,44.4,4.6,4.6,0,0,0,31.955,40.191ZM5.987,32.624H25.961l3.715,6.536H2.279Zm16.754,8.1a3.011,3.011,0,0,1-5.929,0Zm-7.594,0a3.015,3.015,0,0,1-5.935,0Zm-13.529,0H7.554a3.015,3.015,0,0,1-5.935,0ZM13.163,57.383H8.658V48.927a1.116,1.116,0,0,1,1.117-1.117h2.279a1.116,1.116,0,0,1,1.117,1.117v8.456Zm14.476,0H14.73V48.927a2.688,2.688,0,0,0-2.684-2.684H9.768a2.688,2.688,0,0,0-2.684,2.684v8.462H4.309V44.768c.091.007.183.007.274.007a4.578,4.578,0,0,0,3.8-2.024,4.579,4.579,0,0,0,7.6,0,4.567,4.567,0,0,0,7.587,0,4.578,4.578,0,0,0,3.8,2.024c.091,0,.176-.007.268-.007V57.383Zm-.268-14.175a3.01,3.01,0,0,1-2.964-2.481h5.935A3.028,3.028,0,0,1,27.371,43.208Z" transform="translate(0 -31.05)"/></g></svg>