<svg xmlns="http://www.w3.org/2000/svg" width="24.41" height="25.333" viewBox="0 0 24.41 25.333"><defs><style>.a{fill:#fff;}</style></defs><g transform="translate(-0.275 -0.001)"><g transform="translate(0.275 0.001)"><g transform="translate(0 0)"><path class="a" d="M90.779,11.948a2.85,2.85,0,0,0,.363-.026,3.032,3.032,0,0,0,2.075-1.442,21.224,21.224,0,0,1,1.94,4.7.52.52,0,0,0,.482.4h.026a.519.519,0,0,0,.493-.353,13.555,13.555,0,0,1,1.51-2.9,2.846,2.846,0,0,0,1.956,1.655,2.492,2.492,0,0,0,.441.041,3.535,3.535,0,0,0,2.464-1.2c1.359-1.427,1.862-5.328.944-7.32a.516.516,0,0,0-.69-.249.908.908,0,0,0-.093.057A6.8,6.8,0,0,1,100,6.459a7.365,7.365,0,0,0-2.381.934,2.953,2.953,0,0,0-1.458,2.355,2.462,2.462,0,0,0,.8,1.759,14.164,14.164,0,0,0-1.219,2.033,24.024,24.024,0,0,0-1.836-3.979,3.764,3.764,0,0,0,2.174-2.438,4.323,4.323,0,0,0-1.157-3.595A6.611,6.611,0,0,0,91.1,1.692,8.549,8.549,0,0,1,87.361.125a.51.51,0,0,0-.436-.114.522.522,0,0,0-.358.265c-1.437,2.713-.7,7.88.9,9.763A4.588,4.588,0,0,0,90.779,11.948ZM98.2,8.259a6.415,6.415,0,0,1,2.065-.8,8.74,8.74,0,0,0,2.474-.939c.482,1.831-.057,4.638-.96,5.582a2.373,2.373,0,0,1-1.956.856c-.726-.14-1.178-.913-1.427-1.535-.005-.005-.01-.016-.016-.021a7.082,7.082,0,0,1,2.168-1.748.52.52,0,1,0-.456-.934.005.005,0,0,0-.005.005A8.094,8.094,0,0,0,97.622,10.7a1.428,1.428,0,0,1-.42-.944A1.94,1.94,0,0,1,98.2,8.259ZM87.231,1.339a10.689,10.689,0,0,0,3.626,1.375,5.8,5.8,0,0,1,3.284,1.494A3.258,3.258,0,0,1,95.08,6.9a2.838,2.838,0,0,1-1.7,1.779,22.944,22.944,0,0,0-4.129-4.9.518.518,0,0,0-.706.757.071.071,0,0,0,.021.016,22.1,22.1,0,0,1,4.072,4.907A2.381,2.381,0,0,1,91,10.895a3.414,3.414,0,0,1-2.744-1.51C86.982,7.886,86.339,3.8,87.231,1.339Z" transform="translate(-82.128 -0.001)"/><path class="a" d="M24.63,303.793a.472.472,0,0,0-.092-.14l-.117-.119c-1.012-1.038-1.571-1.608-2.919-1.214l-4.445,1.271c0-.031.005-.062.005-.1a1.685,1.685,0,0,0-1.643-1.816c-.773,0-1.337,0-1.816.005-.707,0-1.221.005-1.943,0l-.107-.1a4.63,4.63,0,0,0-3.677-1.453H5.361v-.519a.515.515,0,0,0-.509-.519H.784a.515.515,0,0,0-.509.519v7.781a.515.515,0,0,0,.509.519H4.852a.515.515,0,0,0,.509-.519v-.239c.936.322,1.76.617,2.487.877,2.594.929,4.058,1.442,5.421,1.442,1.709,0,3.255-.809,6.662-2.63,1.19-.638,2.675-1.427,4.475-2.35A.523.523,0,0,0,24.63,303.793ZM4.344,306.864H1.292V300.12H4.344Zm15.1-.949c-5.782,3.092-5.782,3.092-11.27,1.131-.809-.29-1.744-.622-2.817-.991v-4.9H7.868a3.683,3.683,0,0,1,2.965,1.162,3.474,3.474,0,0,0,.305.28.483.483,0,0,0,.31.109c.824.005,1.368.005,2.136.005.478,0,1.058-.005,1.836-.005.605,0,.626.7.626.778a.954.954,0,0,1-.173.571.528.528,0,0,1-.453.208H9.953a.524.524,0,0,0-.519.441.516.516,0,0,0,.5.6h5.477a1.5,1.5,0,0,0,1.185-.534.427.427,0,0,0,.081-.005l5.086-1.453c.646-.187.875-.1,1.541.565C21.777,304.665,20.5,305.349,19.448,305.915Z" transform="translate(-0.275 -284.135)"/></g></g></g></svg>