<svg xmlns="http://www.w3.org/2000/svg" width="22.501" height="21.183" viewBox="0 0 22.501 21.183"><defs><style>.a{fill:#53b201;}.b{fill:#fff;}</style></defs><g transform="translate(0 -1)"><path class="a" d="M28.165,30.53H9.1V10.1l18.937.132.172,3.431.956-.092,1.374.621.229,1.326L27.9,23.264Z" transform="translate(-8.699 -8.699)"/><path class="b" d="M48.739,32.9H48.73a.33.33,0,1,0,0,.661h.009a.33.33,0,0,0,0-.661Z" transform="translate(-46.268 -30.495)"/><path class="b" d="M82.739,32.9H82.73a.33.33,0,1,0,0,.661h.009a.33.33,0,1,0,0-.661Z" transform="translate(-78.771 -30.495)"/><path class="b" d="M116.739,33.1h-.009a.33.33,0,1,0,0,.661h.009a.33.33,0,0,0,0-.661Z" transform="translate(-111.274 -30.686)"/><path class="b" d="M179.628,35.761h5.827a.33.33,0,0,0,0-.661h-5.827a.33.33,0,0,0-.33.33A.324.324,0,0,0,179.628,35.761Z" transform="translate(-171.402 -32.598)"/><path class="b" d="M71.766,127.9h4.875a.33.33,0,0,0,0-.661H71.766a.4.4,0,0,1-.4-.4v-.348l3.294-1.449c.775-.339.92-.242,1.629.225.084.053.167.11.264.172.062.04.119.079.176.115.912.595,1.088.639,2.14.123l1.339-.656c.74-.366.925-.251,1.621.163.137.084.291.176.471.273l.964.537v.846a.4.4,0,0,1-.4.4H78.222a.33.33,0,0,0,0,.661h4.642a1.069,1.069,0,0,0,1.066-1.066v-4.065a1.069,1.069,0,0,0-1.066-1.066h-11.1a1.069,1.069,0,0,0-1.066,1.066v4.065A1.067,1.067,0,0,0,71.766,127.9Zm-.4-5.131a.4.4,0,0,1,.4-.4H82.86a.408.408,0,0,1,.4.4v2.457l-.643-.357c-.167-.092-.321-.185-.454-.264a1.891,1.891,0,0,0-2.25-.189l-1.339.656a2.05,2.05,0,0,1-.784.291,2.038,2.038,0,0,1-.7-.374c-.057-.035-.115-.075-.176-.115-.092-.062-.176-.119-.26-.172a1.889,1.889,0,0,0-2.264-.277l-3.026,1.33v-2.986Z" transform="translate(-67.586 -115.384)"/><path class="b" d="M21.408,4.638a1.731,1.731,0,0,0-1.546.137V2.163A1.162,1.162,0,0,0,18.7,1H1.163A1.164,1.164,0,0,0,0,2.163V21.021a1.164,1.164,0,0,0,1.163,1.163H18.7a1.164,1.164,0,0,0,1.163-1.163V13.243l2.325-5.866v0l.194-.484A1.729,1.729,0,0,0,21.408,4.638ZM19.862,5.686a1.069,1.069,0,0,1,1.9.956l-.07.176-1.832-.727-.154-.062h0l.07-.176A1.187,1.187,0,0,1,19.862,5.686ZM19.2,21.021a.5.5,0,0,1-.5.5H1.163a.5.5,0,0,1-.5-.5V4.664H5.628a.33.33,0,0,0,0-.661H.665V2.163a.5.5,0,0,1,.5-.5H18.7a.5.5,0,0,1,.5.5V4H7.2a.33.33,0,0,0,0,.661h12v.859c-.013.031-.026.057-.04.088l-.189.471h0a.015.015,0,0,1,0,.009l-3.149,7.936H5.448a.33.33,0,1,0,0,.661H15.559l-.383.969H3.448a.33.33,0,0,0,0,.661H15l-.026.964H3.448a.33.33,0,0,0,0,.661H14.96l-.018.727v.013a.96.96,0,0,0,.026.229H3.448a.33.33,0,1,0,0,.661H15.559a.781.781,0,0,0,.247.04.93.93,0,0,0,.7-.326l1.691-1.9a.348.348,0,0,0,.062-.1L19.2,14.9v6.122ZM15.63,17.735l.031-1.105,1.722.683-.735.828Zm.551.934-.172.194a.253.253,0,0,1-.269.092A.25.25,0,0,1,15.6,18.7l.009-.255Zm3.682-7.227L19.2,13.115l-1.44,3.629-1.986-.788L19.2,7.311l.264-.669.4.159,1.59.63Z" transform="translate(0 0)"/></g></svg>