<svg id="followers" xmlns="http://www.w3.org/2000/svg" width="8.641" height="8.641" viewBox="0 0 8.641 8.641">
  <g id="Group_37" data-name="Group 37" transform="translate(0 0)">
    <g id="Group_36" data-name="Group 36">
      <path id="Path_49" data-name="Path 49" d="M6.632,3.369A1.9,1.9,0,1,0,3.558,2.3,1.9,1.9,0,0,0,2.011,5.643,3.229,3.229,0,0,0,0,8.63H.675A2.552,2.552,0,0,1,3.224,6.081a1.9,1.9,0,0,0,1.861-2.3,1.908,1.908,0,0,0,.334.029A2.546,2.546,0,0,1,7.45,4.818l.458-.509A3.241,3.241,0,0,0,6.632,3.369ZM3.224,5.405A1.228,1.228,0,1,1,4.452,4.177,1.229,1.229,0,0,1,3.224,5.405ZM5.419,3.131A1.228,1.228,0,1,1,6.647,1.9,1.229,1.229,0,0,1,5.419,3.131Z" transform="translate(0 0)" fill="#53b201"/>
    </g>
  </g>
  <g id="Group_39" data-name="Group 39" transform="translate(4.004 5.062)">
    <g id="Group_38" data-name="Group 38">
      <path id="Path_50" data-name="Path 50" d="M20.354,20.5l-2.345,2.611-1.324-1.26-.466.489,1.827,1.739,2.81-3.128Z" transform="translate(-16.22 -20.501)" fill="#53b201"/>
    </g>
  </g>
</svg>
