<svg xmlns="http://www.w3.org/2000/svg" width="16" height="14.215" viewBox="0 0 16 14.215"><defs><style>.a{fill:#53b201;}</style></defs><g transform="translate(0 -12.136)"><g transform="translate(0 12.136)"><path class="a" d="M8,26.351a.555.555,0,0,1-.4-.165L1.209,19.633l0-.005a4.465,4.465,0,0,1,0-6.1l.1-.1a4.065,4.065,0,0,1,5.941,0l.758.8.758-.8a4.065,4.065,0,0,1,5.941,0l.1.1a4.465,4.465,0,0,1,0,6.1l0,.005L8.4,26.186A.555.555,0,0,1,8,26.351ZM2,18.935l6,6.144,6-6.144a3.467,3.467,0,0,0,0-4.717l-.1-.1a2.946,2.946,0,0,0-4.335,0L8.4,15.337a.56.56,0,0,1-.8,0l-1.16-1.221a2.946,2.946,0,0,0-4.334,0l-.1.1A3.467,3.467,0,0,0,2,18.935Z" transform="translate(0 -12.136)"/></g></g></svg>