<svg xmlns="http://www.w3.org/2000/svg" width="7.199" height="9.505" viewBox="0 0 7.199 9.505"><defs><style>.a{fill:#999;}.b{fill:#f7f7f7;}</style></defs><g transform="translate(-49.772)"><g transform="translate(49.772)"><g transform="translate(0)"><path class="a" d="M53.372,0a3.6,3.6,0,0,0-3.6,3.6c0,1.935,3.321,5.683,3.461,5.841a.185.185,0,0,0,.262.014l.014-.014c.141-.159,3.461-3.906,3.461-5.841A3.6,3.6,0,0,0,53.372,0Z" transform="translate(-49.772)"/></g></g><g transform="translate(51.488 1.807)"><g transform="translate(0)"><path class="b" d="M125.8,78a1.951,1.951,0,1,0,1.953,1.951A1.951,1.951,0,0,0,125.8,78Z" transform="translate(-123.852 -78)"/></g></g></g></svg>