<svg xmlns="http://www.w3.org/2000/svg" width="8.249" height="7.25" viewBox="0 0 8.249 7.25"><defs><style>.a{fill:#999;}</style></defs><g transform="translate(0)"><path class="a" d="M211,240h1.45v.483H211Zm0,0" transform="translate(-207.6 -236.133)"/><path class="a" d="M6.693,80.513H5.333v.242A.242.242,0,0,1,5.091,81H3.158a.242.242,0,0,1-.242-.242v-.242H1.557a.724.724,0,0,1-.688-.5L0,77.41v5.278a.726.726,0,0,0,.725.725h6.8a.726.726,0,0,0,.725-.725V77.41L7.38,80.018a.724.724,0,0,1-.688.5Zm0,0" transform="translate(0 -76.163)"/><path class="a" d="M30.484,0H28.551a.726.726,0,0,0-.725.725V.967H25.809L26.721,3.7a.242.242,0,0,0,.229.165h1.359V3.625a.242.242,0,0,1,.242-.242h1.933a.242.242,0,0,1,.242.242v.242h1.359a.242.242,0,0,0,.229-.165L33.227.967H31.21V.725A.726.726,0,0,0,30.485,0ZM28.309.967V.725a.242.242,0,0,1,.242-.242h1.933a.242.242,0,0,1,.242.242V.967Zm0,0" transform="translate(-25.393)"/></g></svg>