<svg xmlns="http://www.w3.org/2000/svg" width="17" height="21.913" viewBox="0 0 17 21.913"><defs><style>.a{fill:#53b201;}</style></defs><g transform="translate(-51.493)"><g transform="translate(51.493)"><g transform="translate(0)"><path class="a" d="M175.207,404.514c0,.006,0,.011,0,.017a2.6,2.6,0,1,0,5.2,0c0-.006,0-.011,0-.017Z" transform="translate(-169.305 -385.216)"/><path class="a" d="M68.289,16.05,65.95,12.615V8.33a5.959,5.959,0,0,0-4.789-5.842V1.168a1.168,1.168,0,0,0-2.336,0v1.32A5.959,5.959,0,0,0,54.036,8.33v4.285L51.7,16.05a1.181,1.181,0,0,0,.976,1.846H67.312a1.181,1.181,0,0,0,.976-1.846Z" transform="translate(-51.493)"/></g></g></g></svg>