<svg xmlns="http://www.w3.org/2000/svg" width="9" height="7.996" viewBox="0 0 9 7.996"><defs><style>.a{fill:#53b201;}</style></defs><g transform="translate(0 -12.136)"><g transform="translate(0 12.136)"><path class="a" d="M4.5,20.132a.312.312,0,0,1-.223-.093L.68,16.353l0,0a2.512,2.512,0,0,1,0-3.431l.055-.058a2.287,2.287,0,0,1,3.342,0l.426.449.426-.449a2.287,2.287,0,0,1,3.342,0l.055.057a2.512,2.512,0,0,1,0,3.431l0,0-3.6,3.686A.312.312,0,0,1,4.5,20.132Zm3.371-6.825Z" transform="translate(0 -12.136)"/></g></g></svg>