<svg xmlns="http://www.w3.org/2000/svg" width="16" height="15.351" viewBox="0 0 16 15.351"><defs><style>.a{fill:#53b201;}</style></defs><g transform="translate(-55 -29.23)"><g transform="translate(55 29.23)"><path class="a" d="M13.195,7.23H2.805A2.808,2.808,0,0,0,0,10.035v6.408a2.808,2.808,0,0,0,2.805,2.805H9.423l3.168,3.168a.561.561,0,0,0,.958-.4V19.227A2.809,2.809,0,0,0,16,16.444V10.035A2.808,2.808,0,0,0,13.195,7.23Zm1.683,9.214a1.685,1.685,0,0,1-1.683,1.683h-.207a.561.561,0,0,0-.561.561v1.978l-2.374-2.374a.561.561,0,0,0-.4-.164H2.805a1.685,1.685,0,0,1-1.683-1.683V10.035A1.685,1.685,0,0,1,2.805,8.352h10.39a1.685,1.685,0,0,1,1.683,1.683Z" transform="translate(0 -7.23)"/><path class="a" d="M82.561,95.743H74.3a.561.561,0,0,0,0,1.122h8.258a.561.561,0,0,0,0-1.122Z" transform="translate(-70.432 -91.77)"/><path class="a" d="M82.561,165.743H74.3a.561.561,0,0,0,0,1.122h8.258a.561.561,0,0,0,0-1.122Z" transform="translate(-70.432 -158.628)"/></g></g></svg>